HIERARCHY
ROOT Hips
{
 OFFSET 0.000000 0.000000 0.000000
 CHANNELS 6 Xposition Yposition Zposition Yrotation Xrotation Zrotation
 JOINT Chest
 {
  OFFSET 0.000000 9.588913 -0.003946
  CHANNELS 3 Yrotation Xrotation Zrotation
  JOINT Chest2
  {
   OFFSET 0.000000 9.541882 0.008053
   CHANNELS 3 Yrotation Xrotation Zrotation
   JOINT Chest3
   {
    OFFSET 0.000000 9.501360 0.000000
    CHANNELS 3 Yrotation Xrotation Zrotation
    JOINT Chest4
    {
     OFFSET 0.000000 9.491660 0.000000
     CHANNELS 3 Yrotation Xrotation Zrotation
     JOINT Neck
     {
      OFFSET 0.000000 14.331917 0.000000
      CHANNELS 3 Yrotation Xrotation Zrotation
      JOINT Head
      {
       OFFSET 0.000000 8.884799 0.017034
       CHANNELS 3 Yrotation Xrotation Zrotation
       End Site
       {
        OFFSET 0.000000 16.896195 0.008993
       }
      }
     }
     JOINT RightCollar
     {
      OFFSET -2.923010 9.499495 0.000000
      CHANNELS 3 Yrotation Xrotation Zrotation
      JOINT RightShoulder
      {
       OFFSET -13.795216 0.000000 0.000000
       CHANNELS 3 Yrotation Xrotation Zrotation
       JOINT RightElbow
       {
        OFFSET -30.272209 0.000000 0.000000
        CHANNELS 3 Yrotation Xrotation Zrotation
        JOINT RightWrist
        {
         OFFSET -24.478199 0.000000 0.000000
         CHANNELS 3 Yrotation Xrotation Zrotation
         End Site
         {
          OFFSET -18.090752 0.000000 0.000000
         }
        }
       }
      }
     }
     JOINT LeftCollar
     {
      OFFSET 2.923010 9.499495 0.000000
      CHANNELS 3 Yrotation Xrotation Zrotation
      JOINT LeftShoulder
      {
       OFFSET 13.795216 0.000000 0.000000
       CHANNELS 3 Yrotation Xrotation Zrotation
       JOINT LeftElbow
       {
        OFFSET 30.272209 0.000000 0.000000
        CHANNELS 3 Yrotation Xrotation Zrotation
        JOINT LeftWrist
        {
         OFFSET 24.478199 0.000000 0.000000
         CHANNELS 3 Yrotation Xrotation Zrotation
         End Site
         {
          OFFSET 18.090752 0.000000 0.000000
         }
        }
       }
      }
     }
    }
   }
  }
 }
 JOINT RightHip
 {
  OFFSET -7.826875 0.019532 0.001973
  CHANNELS 3 Yrotation Xrotation Zrotation
  JOINT RightKnee
  {
   OFFSET 0.000000 -40.546152 -0.001885
   CHANNELS 3 Yrotation Xrotation Zrotation
   JOINT RightAnkle
   {
    OFFSET 0.000000 -39.417092 -0.003189
    CHANNELS 3 Yrotation Xrotation Zrotation
    JOINT RightToe
    {
     OFFSET 0.000000 -7.579396 17.243563
     CHANNELS 3 Yrotation Xrotation Zrotation
     End Site
     {
      OFFSET 0.000000 -1.500329 6.694466
     }
    }
   }
  }
 }
 JOINT LeftHip
 {
  OFFSET 7.826875 0.019532 0.001973
  CHANNELS 3 Yrotation Xrotation Zrotation
  JOINT LeftKnee
  {
   OFFSET 0.000000 -40.546152 -0.001885
   CHANNELS 3 Yrotation Xrotation Zrotation
   JOINT LeftAnkle
   {
    OFFSET 0.000000 -39.417092 -0.003189
    CHANNELS 3 Yrotation Xrotation Zrotation
    JOINT LeftToe
    {
     OFFSET 0.000000 -7.579396 17.243563
     CHANNELS 3 Yrotation Xrotation Zrotation
     End Site
     {
      OFFSET 0.000000 -1.500329 6.694466
     }
    }
   }
  }
 }
}
MOTION
Frames: 11
Frame Time: 0.008333
0.000000 87.345680 0.000000 0.000000 -5.767889 0.000000 0.000000 11.653876 0.000000 0.000000 -5.885988 0.000000 0.000000 -0.000000 0.000000 0.000000 -0.000000 0.000000 0.000000 12.528808 0.000000 0.000000 0.711711 0.000000 0.000000 -0.000000 0.000000 0.000000 -0.000000 0.000000 2.309063 -0.000000 0.000000 -2.309063 -0.000000 -0.000000 0.000000 -0.000000 0.000000 0.000000 0.000000 0.000000 -2.309063 0.000000 0.000000 2.309063 -0.000000 0.000000 0.000000 8.520374 0.000000 0.000000 1.905768 0.000000 -0.000000 -4.658254 0.000000 0.000000 -0.000000 0.000000 0.000000 8.520374 0.000000 0.000000 1.905768 0.000000 -0.000000 -4.658254 0.000000 0.000000 -0.000000 0.000000
-20.753810 89.306446 5.636145 -43.035164 -8.710096 2.297502 1.652306 3.995791 1.000419 0.939795 2.301487 0.526713 1.178288 2.875477 0.664424 0.939796 2.301487 0.526713 -0.051823 22.454705 -1.822685 0.360610 -1.681848 -1.946437 -6.744142 1.101471 -2.399934 -4.059989 -4.002835 84.963667 1.934595 2.884148 0.114250 3.693139 -2.208330 -2.450444 -4.820221 0.614777 -1.311525 4.450722 -4.313181 -93.606282 -3.025338 5.387770 -0.544559 -1.932578 4.979657 2.122842 -8.302498 8.581003 -7.901259 2.453499 2.869484 -0.143151 -3.069344 -3.648697 3.199381 -0.024824 -0.005895 -0.041459 21.513491 4.261556 -0.120022 -0.630539 5.296366 1.267922 5.755449 -0.499269 -0.310612 0.005319 -0.077151 -0.214442
-20.797455 89.289433 5.679228 -42.990003 -8.660166 2.297316 1.630582 3.962444 0.987495 0.931570 2.277264 0.513624 1.167884 2.845244 0.647943 0.931571 2.277264 0.513623 -0.068432 22.456763 -1.853254 0.349752 -1.678781 -1.975582 -6.799380 1.143467 -2.419131 -3.914235 -3.800779 85.171965 1.856055 3.010603 0.146665 3.608496 -2.147460 -2.371842 -4.794962 0.589336 -1.303644 4.522546 -4.303035 -93.563382 -3.008220 5.146577 -0.627430 -1.858713 4.862536 2.106744 -8.359477 8.604912 -7.903385 2.469423 2.821364 -0.155206 -3.086796 -3.718323 3.225326 -0.028543 0.053778 -0.046732 21.394845 4.319136 -0.084990 -0.674511 5.165182 1.172976 5.821974 -0.479041 -0.282599 0.004408 -0.066616 -0.174979
-20.848035 89.271969 5.729509 -42.972596 -8.609377 2.302626 1.623449 3.928645 0.965693 0.929689 2.254246 0.503388 1.165431 2.816501 0.635074 0.929689 2.254246 0.503388 -0.089506 22.454041 -1.881883 0.333652 -1.681442 -2.001574 -6.845682 1.183227 -2.425491 -3.732819 -3.597704 85.355266 1.772363 3.159257 0.178959 3.524501 -2.082163 -2.289398 -4.771291 0.566998 -1.300781 4.616673 -4.291683 -93.514546 -2.989509 4.896773 -0.732122 -1.779947 4.730683 2.076943 -8.377134 8.628659 -7.902792 2.485619 2.778925 -0.175785 -3.110910 -3.766647 3.255574 -0.028962 0.086836 -0.048968 21.317284 4.399185 -0.041587 -0.673692 5.005841 1.068312 5.849559 -0.468085 -0.253306 0.005029 -0.041504 -0.138514
-20.905362 89.255438 5.783567 -42.988989 -8.563825 2.297766 1.631214 3.897962 0.947399 0.935197 2.233493 0.496313 1.172242 2.790570 0.626206 0.935197 2.233493 0.496312 -0.111656 22.445631 -1.906755 0.315539 -1.690928 -2.023224 -6.883971 1.221306 -2.415328 -3.518537 -3.395394 85.516139 1.683974 3.327234 0.210291 3.445807 -2.015997 -2.210752 -4.748576 0.548539 -1.298104 4.729344 -4.282533 -93.461299 -2.973058 4.653607 -0.853120 -1.706270 4.595217 2.038496 -8.352177 8.658357 -7.881452 2.499904 2.747182 -0.204369 -3.134914 -3.814512 3.286118 -0.028767 0.111132 -0.048539 21.299605 4.501230 0.020410 -0.637489 4.817784 0.971208 5.836706 -0.453812 -0.225735 0.005998 -0.013115 -0.109155
-20.966902 89.240920 5.839260 -43.040802 -8.526086 2.281044 1.652728 3.871087 0.931809 0.948168 2.215465 0.492242 1.188406 2.768028 0.621146 0.948168 2.215465 0.492241 -0.132399 22.431706 -1.926925 0.297866 -1.707038 -2.040083 -6.913528 1.259759 -2.386894 -3.283818 -3.194214 85.657308 1.588253 3.517340 0.239605 3.380389 -1.953634 -2.143371 -4.724788 0.537235 -1.288169 4.857654 -4.277622 -93.408173 -2.965897 4.431588 -0.982093 -1.645532 4.472241 1.997413 -8.288225 8.694174 -7.839981 2.511789 2.724311 -0.236778 -3.155315 -3.856038 3.312351 -0.028436 0.125072 -0.044780 21.350108 4.626064 0.101298 -0.588353 4.599891 0.887360 5.789329 -0.432842 -0.201227 0.005261 0.017084 -0.087903
-21.029969 89.229023 5.894928 -43.120477 -8.497468 2.252090 1.684903 3.848055 0.919550 0.967328 2.200539 0.490928 1.212329 2.749348 0.619579 0.967328 2.200539 0.490928 -0.153106 22.413375 -1.942863 0.279270 -1.728458 -2.052350 -6.938557 1.296989 -2.344693 -3.040538 -2.994634 85.784819 1.481061 3.732457 0.266928 3.331862 -1.898611 -2.090470 -4.698539 0.533021 -1.269000 4.996116 -4.275917 -93.357638 -2.974953 4.247306 -1.110089 -1.615380 4.370361 1.964352 -8.197491 8.735042 -7.780717 2.522501 2.709515 -0.270969 -3.172130 -3.887860 3.332906 -0.027484 0.128389 -0.038250 21.440708 4.769134 0.196991 -0.536768 4.358890 0.814812 5.736241 -0.404744 -0.176909 0.001479 0.046983 -0.074799
-21.092335 89.219983 5.949756 -43.216456 -8.480555 2.212358 1.723234 3.829251 0.911413 0.990319 2.189344 0.492297 1.241064 2.735319 0.621397 0.990319 2.189344 0.492297 -0.173870 22.392587 -1.955750 0.259920 -1.752850 -2.061293 -6.964060 1.329440 -2.297036 -2.792975 -2.797427 85.905369 1.362828 3.966014 0.292522 3.294032 -1.851868 -2.051650 -4.669220 0.532356 -1.243261 5.135975 -4.273978 -93.310260 -3.003174 4.113141 -1.228227 -1.630376 4.287766 1.950076 -8.088946 8.780568 -7.705691 2.531653 2.706976 -0.309758 -3.189582 -3.911625 3.351221 -0.025056 0.122022 -0.030276 21.523205 4.924376 0.299799 -0.475335 4.108849 0.752397 5.704144 -0.371957 -0.150396 -0.006047 0.073762 -0.069814
-21.152045 89.213731 6.003379 -43.315662 -8.476481 2.165346 1.763033 3.814270 0.906974 1.014232 2.181687 0.495634 1.270969 2.725704 0.625690 1.014232 2.181686 0.495634 -0.192574 22.371663 -1.966463 0.242289 -1.777432 -2.068363 -6.992150 1.357650 -2.249243 -2.541537 -2.606274 86.030651 1.231004 4.205379 0.308703 3.259891 -1.813234 -2.022533 -4.638852 0.534728 -1.213539 5.267527 -4.269333 -93.265013 -3.049167 4.026349 -1.329226 -1.693155 4.218429 1.963710 -7.969780 8.830310 -7.619155 2.534668 2.719703 -0.355902 -3.209143 -3.930709 3.371230 -0.020611 0.107961 -0.021884 21.560821 5.087676 0.402449 -0.401764 3.859248 0.696151 5.711077 -0.334758 -0.119807 -0.016019 0.094990 -0.070943
-21.207471 89.209951 6.055145 -43.408893 -8.482029 2.114434 1.800941 3.801744 0.905766 1.036689 2.176475 0.500016 1.299063 2.719146 0.631287 1.036689 2.176475 0.500016 -0.208021 22.352644 -1.976160 0.227925 -1.799756 -2.075100 -7.020689 1.383852 -2.203879 -2.292987 -2.424547 86.174605 1.082977 4.448120 0.306372 3.228284 -1.784007 -2.002308 -4.609657 0.538607 -1.181984 5.386050 -4.259340 -93.219043 -3.108473 3.977700 -1.409523 -1.798213 4.154831 2.006971 -7.849647 8.880928 -7.527939 2.526933 2.745748 -0.405378 -3.227026 -3.946542 3.392249 -0.013465 0.088614 -0.013654 21.546613 5.253648 0.501970 -0.327364 3.614544 0.640644 5.757923 -0.292554 -0.085571 -0.026638 0.109845 -0.074767
-21.257706 89.208221 6.104277 -43.493480 -8.492253 2.062064 1.834203 3.790809 0.907034 1.056216 2.172583 0.504887 1.323498 2.714239 0.637480 1.056216 2.172583 0.504887 -0.219733 22.336616 -1.986057 0.217619 -1.818510 -2.082935 -7.041565 1.408125 -2.160559 -2.058553 -2.251369 86.342304 0.921171 4.714859 0.278268 3.196053 -1.770823 -1.985337 -4.578356 0.540085 -1.148277 5.488181 -4.238595 -93.173418 -3.177665 3.956209 -1.468094 -1.937749 4.091046 2.074269 -7.739434 8.926698 -7.438486 2.506263 2.782650 -0.451958 -3.235546 -3.959697 3.413064 -0.003801 0.066193 -0.007216 21.495424 5.414905 0.598022 -0.257919 3.380449 0.585404 5.821839 -0.246999 -0.052461 -0.037774 0.118622 -0.078041
